<svg width="149" height="131" viewBox="0 0 149 131" fill="none" xmlns="http://www.w3.org/2000/svg">
<path d="M115.274 76.5875C115.434 77.0359 115.434 77.7439 115.274 78.7115C115.114 79.6791 115.025 80.4191 115.006 80.9317C114.577 83.4115 113.553 86.2054 111.933 89.3135C110.313 92.4215 108.728 95.0619 107.178 97.2344C104.02 101.701 100.27 105.217 95.9264 107.781C91.5829 110.345 86.8998 112.525 81.8769 114.321C72.1003 117.816 63.0374 118.779 54.6881 117.212C46.3068 115.555 38.9788 111.751 32.7043 105.801C26.4873 99.7285 21.6634 91.8937 18.2326 82.2965C14.8339 72.7889 13.5209 63.598 14.2935 54.7235C15.0662 45.8491 18.0593 37.9511 23.2728 31.0296C28.544 23.9863 36.1575 18.6852 46.1135 15.1261C50.5982 13.5229 54.6026 12.6984 58.1266 12.6525C61.6507 12.6066 65.6425 12.5958 70.102 12.6201C72.21 12.5746 74.2699 12.3946 76.2817 12.0801C78.2615 11.6758 80.2701 11.2107 82.3074 10.6847C83.1025 12.6259 83.9585 14.5959 84.8754 16.5947C85.7601 18.5038 86.7058 20.4418 87.7124 22.4085C88.5009 24.0486 89.4401 25.6854 90.5298 27.319C91.6196 28.9525 92.4851 30.6662 93.1264 32.4601C93.7356 34.1643 93.5566 35.6444 92.5895 36.9006C91.712 38.1246 90.5109 39.0092 88.9861 39.5543C86.4747 40.452 84.3569 40.0458 82.6328 38.3356C82.1072 37.7142 81.6553 37.0159 81.2771 36.2408C80.8667 35.3759 80.4596 34.6616 80.0558 34.0979C78.4019 31.4521 76.1746 28.7585 73.3737 26.017C70.6305 23.1537 67.8299 21.1202 64.9719 19.9164C62.7226 19.0008 59.9096 18.4891 56.5329 18.3812C53.1241 18.1836 50.2537 18.5016 47.9217 19.3352C45.6793 20.1368 43.7479 21.3836 42.1273 23.0756C40.5965 24.7356 39.1906 26.6038 37.9097 28.6802C35.2072 33.2879 33.5363 38.2348 32.8972 43.5211C32.258 48.8074 32.4038 54.1671 33.3345 59.6003C34.2331 64.9437 35.5481 70.0372 37.2795 74.8807C38.4338 78.1096 39.7675 81.2745 41.2806 84.3752C42.8513 87.3542 44.6462 90.253 46.6653 93.0716C49.428 96.8383 52.6487 100.188 56.3274 103.122C60.0638 105.934 64.0978 107.88 68.4295 108.962C72.8188 109.922 77.3455 109.568 82.0096 107.901C88.6469 105.528 94.0632 101.72 98.2585 96.4778C102.543 91.2033 105.518 85.2339 107.182 78.5697C107.399 77.4804 107.665 76.5256 107.979 75.7054C108.35 74.7634 109.119 74.084 110.285 73.6672C111.451 73.2504 112.463 73.3942 113.322 74.0988C114.27 74.7713 114.921 75.6008 115.274 76.5875Z" fill="black"/>
<path fill-rule="evenodd" clip-rule="evenodd" d="M60.502 109.885L63.502 18.8845L70.4982 19.1152L67.4982 110.115L60.502 109.885Z" fill="black"/>
<path fill-rule="evenodd" clip-rule="evenodd" d="M96.5737 103.591L21.6337 51.8805L25.6093 46.1191L100.549 97.8298L96.5737 103.591Z" fill="black"/>
<path fill-rule="evenodd" clip-rule="evenodd" d="M77.7738 113.357L39.4944 22.357L45.9468 19.6428L84.2262 110.643L77.7738 113.357Z" fill="black"/>
<g style="mix-blend-mode:plus-darker">
<path fill-rule="evenodd" clip-rule="evenodd" d="M90.6293 70.1512C89.4784 70.5689 88.2182 70.5746 87.0635 70.1672C85.9078 69.7594 84.9294 68.963 84.2956 67.9141C83.6617 66.8651 83.4117 65.6286 83.5882 64.4158C83.7645 63.2039 84.3558 62.0907 85.2612 61.2661C85.2618 61.2655 85.2625 61.2648 85.2632 61.2642L97.76 49.8318C102.011 45.9436 107.029 42.9883 112.491 41.1558C112.517 41.1462 112.543 41.137 112.57 41.1281C114.917 40.3455 117.328 39.776 119.775 39.4255C119.822 39.0409 119.893 38.6556 119.987 38.2712C120.695 35.4033 122.329 32.8492 124.637 31.0053C126.945 29.1614 129.797 28.131 132.75 28.0739C135.703 28.0169 138.593 28.9365 140.97 30.6899C143.347 32.4433 145.079 34.9324 145.897 37.7709C146.152 38.6573 145.899 39.6123 145.237 40.2553C144.576 40.8984 143.614 41.1249 142.735 40.8448C142.35 40.7219 141.943 40.6795 141.54 40.7202C141.137 40.761 140.747 40.884 140.394 41.0816C140.041 41.2793 139.732 41.5474 139.487 41.8694C139.241 42.1912 139.065 42.56 138.968 42.9529M120.457 44.3788C119.36 44.5368 118.27 44.7451 117.192 45.0028L119.879 49.4476C120.608 48.6131 121.299 47.7455 121.949 46.8475C121.331 46.1015 120.829 45.2691 120.457 44.3788ZM126.882 44.6209C126.785 44.5345 126.68 44.4545 126.567 44.3821C126.537 44.3631 126.507 44.3447 126.477 44.327C126.404 44.2685 126.333 44.2077 126.264 44.1447C125.445 43.3993 124.91 42.3922 124.752 41.2959L124.751 41.2907C124.665 40.7052 124.689 40.0895 124.842 39.4687C125.286 37.67 126.311 36.068 127.758 34.9115C129.205 33.7551 130.994 33.1088 132.847 33.073C134.699 33.0372 136.511 33.614 138.002 34.7137C138.54 35.1103 139.025 35.5669 139.449 36.0721C138.931 36.2353 138.429 36.4516 137.952 36.7184C137.002 37.2504 136.17 37.9721 135.51 38.8386C134.849 39.7051 134.374 40.698 134.113 41.7557C133.848 42.8312 133.217 43.7813 132.329 44.4428C131.44 45.1043 130.349 45.4363 129.243 45.3819C128.398 45.3404 127.585 45.0756 126.882 44.6209ZM126.017 49.7547C126.965 50.1135 127.97 50.3254 128.997 50.3759C131.262 50.4872 133.496 49.8076 135.314 48.4534C137.133 47.0992 138.425 45.1546 138.968 42.9529M126.017 49.7547C124.57 51.7572 122.944 53.6271 121.16 55.3411C121.14 55.3606 121.119 55.3798 121.098 55.3985C116.935 59.3802 111.985 62.4469 106.566 64.4012L90.6326 70.15C90.6315 70.1504 90.6304 70.1508 90.6293 70.1512M116.226 53.0701L112.286 46.5516C108.181 48.1742 104.4 50.5344 101.135 53.521C101.135 53.5211 101.135 53.5209 101.135 53.521L88.6332 64.9579L88.6282 64.9624C88.5784 65.0078 88.5458 65.0691 88.5361 65.1358C88.5264 65.2025 88.5401 65.2705 88.575 65.3282C88.6098 65.3859 88.6637 65.4297 88.7272 65.4521C88.7908 65.4745 88.8602 65.4742 88.9235 65.4512L88.9296 65.449L104.869 59.6979C109.032 58.1968 112.88 55.9488 116.226 53.0701Z" fill="black"/>
</g>
</svg>
